<?xml version="1.0" encoding="UTF-8"?>
<svg width="100px" height="150px" viewBox="0 0 100 150" version="1.1" xmlns="http://www.w3.org/2000/svg" xmlns:xlink="http://www.w3.org/1999/xlink">
    <!-- Generator: Sketch 45 (43475) - http://www.bohemiancoding.com/sketch -->
    <title>Combined-Shadow</title>
    <desc>Created with Sketch.</desc>
    <defs>
        <path d="M4.08520562,8.83790242 C11.1313241,2.94596747 20.9180255,1.84656965e-15 33.4453097,0 C45.9520588,0 55.5156144,2.93631715 62.1359767,8.80895144 L62.1359767,8.80895144 C64.2754761,10.706808 65.5,13.4298975 65.5,16.2898481 L65.5,52.2462312 L65.5,52.2462312 C65.5,56.2680782 63.564847,60.0442606 60.3001275,62.3930602 L38.8401021,77.8324573 L38.8401021,77.8324573 C35.3512536,80.3425064 30.6487465,80.3425064 27.1598979,77.8324573 L5.69987255,62.3930602 L5.69987255,62.3930602 C2.43515309,60.0442606 0.500000051,56.2680782 0.500000051,52.2462312 L0.500000051,16.5093047 L0.500000113,16.5093047 C0.500000113,13.5474075 1.81301517,10.7378986 4.08520562,8.83790242 Z" id="path-1"></path>
        <filter x="-41.5%" y="-27.6%" width="183.1%" height="167.7%" filterUnits="objectBoundingBox" id="filter-3">
            <feMorphology radius="5" operator="dilate" in="SourceAlpha" result="shadowSpreadOuter1"></feMorphology>
            <feOffset dx="0" dy="5" in="shadowSpreadOuter1" result="shadowOffsetOuter1"></feOffset>
            <feMorphology radius="5" operator="erode" in="SourceAlpha" result="shadowInner"></feMorphology>
            <feOffset dx="0" dy="5" in="shadowInner" result="shadowInner"></feOffset>
            <feComposite in="shadowOffsetOuter1" in2="shadowInner" operator="out" result="shadowOffsetOuter1"></feComposite>
            <feGaussianBlur stdDeviation="6.5" in="shadowOffsetOuter1" result="shadowBlurOuter1"></feGaussianBlur>
            <feColorMatrix values="0 0 0 0 0.105882353   0 0 0 0 0.125490196   0 0 0 0 0.149019608  0 0 0 0.1 0" type="matrix" in="shadowBlurOuter1"></feColorMatrix>
        </filter>
    </defs>
    <g id="Finger-Print" stroke="none" stroke-width="1" fill="none" fill-rule="evenodd">
        <g id="Combined-Shadow">
            <text id="AncileType" font-family="GothamRounded-Bold, Gotham Rounded" font-size="25" font-weight="bold" fill="#FFCE31">
                <tspan x="10.2875" y="140">Ancile</tspan>
            </text>
            <g id="AncileMark-Shadow" transform="translate(17.000000, 20.000000)">
                <mask id="mask-2" fill="white">
                    <use xlink:href="#path-1"></use>
                </mask>
                <g id="Mask" stroke-linecap="round" stroke-linejoin="round">
                    <use fill="black" fill-opacity="1" filter="url(#filter-3)" xlink:href="#path-1"></use>
                    <use stroke="#FFFFFF" stroke-width="10" xlink:href="#path-1"></use>
                </g>
                <path d="M-29.5,52.4888461 C-29.5,17.9710492 -1.51779686,-10.0111539 33,-10.0111539 C67.5177939,-10.0111539 95.5,17.9712205 95.5,52.4888461 C95.5,64.3953962 93.2931475,76.4234097 86.9198579,89.0157711 C78.0732851,106.494851 62.863978,120.430132 42.057342,129.002292 C20.3549379,137.943501 -4.48661893,127.598509 -13.4278281,105.896105 C-16.4705394,98.5107335 -17.2798035,90.7618313 -16.1680849,83.3997225 C-24.3768854,75.6509504 -29.5,64.668182 -29.5,52.4888461 Z" id="Oval-2" fill="#FFCE31" fill-rule="nonzero" mask="url(#mask-2)"></path>
                <path d="M-8.80480711,103.992771 C-11.8527951,96.5945918 -12.360756,88.7829808 -10.7321244,81.5267104 C-19.1361504,74.6497693 -24.5,64.1963609 -24.5,52.4901583 C-24.5,20.7337852 1.24362689,-5.00984169 33,-5.00984169 C64.7563635,-5.00984169 90.5,20.7339498 90.5,52.4901583 C90.5,63.6770221 88.429443,74.9621838 82.4587024,86.7591879 C74.1572283,103.161261 59.8590587,116.261726 40.152696,124.380583 C21.0035159,132.269885 -0.915504868,123.141951 -8.80480711,103.992771 Z M15.4888918,52.8523138 C14.8124456,53.4559472 13.6020224,54.2034495 11.5830052,55.0352677 C-0.167995842,59.876582 -8.14526479,70.0011118 -10.7321244,81.5267104 C-4.26770137,86.8164913 3.99552449,89.9901583 13,89.9901583 C33.7106781,89.9901583 50.5,73.2008364 50.5,52.4901583 C50.5,62.1551414 42.6649831,69.9901583 33,69.9901583 C23.4930798,69.9901583 15.7569338,62.4095517 15.5062689,52.9631802 C15.5051741,52.9219234 15.5042221,52.8806311 15.5034134,52.8393037 C15.5011413,52.7231955 15.5,52.6068102 15.5,52.4901583 C15.5,52.6368291 15.4961326,52.7548261 15.4888918,52.8523138 C15.48583,52.8935373 15.482165,52.9310935 15.4635815,53.060586 C15.4620301,53.0690419 15.4739122,53.033156 15.5413706,52.8907557 C15.5829502,52.8086026 15.6299286,52.7326983 15.669938,52.6793872 C15.6674377,52.6827187 15.6324344,52.7213656 15.4888918,52.8523138 Z" id="Oval-2" fill="#FFFFFF" fill-rule="nonzero" mask="url(#mask-2)"></path>
                <path d="M-19.5,52.4914705 C-19.5,23.4965212 4.00505063,-0.00852946138 33,-0.00852946138 C61.994933,-0.00852946138 85.5,23.496679 85.5,52.4914705 C85.5,62.9586479 83.5657385,73.500958 77.997547,84.5026046 C70.2411715,99.8276704 56.8541394,112.093321 38.2480499,119.758874 C21.6520938,126.59627 2.6556092,118.685393 -4.18178608,102.089437 C-7.25873555,94.6209616 -7.34892392,86.6663408 -5.0049251,79.552477 C-13.7432226,73.7268806 -19.5,63.7814593 -19.5,52.4914705 Z" id="Oval-2" fill="#FFCE31" fill-rule="nonzero" mask="url(#mask-2)"></path>
                <path d="M-14.5,52.4927828 C-14.5,26.2592571 6.76647438,4.99278276 33,4.99278276 C59.2335025,4.99278276 80.5,26.2594082 80.5,52.4927828 C80.5,62.2402737 78.702034,72.0397321 73.5363915,82.2460213 C66.3251147,96.4940799 53.84922,107.924916 36.3434039,115.137166 C22.3006718,120.922654 6.22672326,114.228835 0.441234945,100.186103 C-2.71645339,92.5216557 -2.15665906,84.2521256 1.28647897,77.3805409 C-8.04328876,72.9817714 -14.5,63.4912999 -14.5,52.4927828 Z" id="Oval-2" fill="#FFFFFF" fill-rule="nonzero" mask="url(#mask-2)"></path>
                <path d="M-9.5,52.494095 C-9.5,29.0219931 9.52789813,9.99409499 33,9.99409499 C56.472072,9.99409499 75.5,29.0221375 75.5,52.494095 C75.5,61.5218996 73.8383295,70.5785062 69.0752361,79.9894381 C62.4090579,93.1604894 50.8443007,103.75651 34.4387578,110.515457 C22.9492498,115.249038 9.79783732,109.772277 5.06425597,98.2827693 C1.65974719,90.019231 3.53688721,80.8960157 9.13398777,74.6632246 C-1.45030179,72.8303604 -9.5,63.6022816 -9.5,52.494095 Z" id="Oval-2" fill="#FFCE31" fill-rule="nonzero" mask="url(#mask-2)"></path>
                <path d="M-4.5,52.4954072 C-4.5,31.7847291 12.2893219,14.9954072 33,14.9954072 C53.7106415,14.9954072 70.5,31.7848667 70.5,52.4954072 C70.5,60.8035254 68.974625,69.1172804 64.6140806,77.7328548 C58.4930011,89.8268989 47.8393814,99.5881047 32.5341118,105.893748 C23.5978277,109.575422 13.3689514,105.31572 9.687277,96.3794355 C6.00560262,87.4431515 10.2653054,77.2142751 19.2015894,73.5326007 C26.804946,70.4000813 31.0806034,66.4825798 33.3859924,61.9275865 C34.9286935,58.8795138 35.5,55.7657207 35.5,52.4954072 C35.5,51.1147858 34.3806281,49.9954072 33,49.9954072 C31.6192881,49.9954072 30.5,51.1146953 30.5,52.4954072 C30.5,62.1603903 22.6649831,69.9954072 13,69.9954072 C3.33501688,69.9954072 -4.5,62.1603903 -4.5,52.4954072 Z" id="Oval-2" fill="#FFFFFF" fill-rule="nonzero" mask="url(#mask-2)"></path>
                <path d="M0.5,52.4967194 C0.5,34.5474651 15.0507456,19.9967194 33,19.9967194 C50.949211,19.9967194 65.5,34.5475959 65.5,52.4967194 C65.5,60.0851513 64.1109205,67.6560545 60.1529251,75.4762716 C54.5769443,86.4933084 44.834462,95.4196993 30.6294657,101.272039 C24.2464057,103.901807 16.9400654,100.859162 14.310298,94.4761017 C11.6805306,88.0930417 14.7231755,80.7867014 21.1062355,78.156934 C29.8098654,74.5711112 34.9966602,69.8187947 37.8471479,64.1867942 C39.792398,60.3433641 40.5,56.4867193 40.5,52.4967194 C40.5,48.354681 37.1420586,44.9967194 33,44.9967194 C28.8578644,44.9967194 25.5,48.3545838 25.5,52.4967194 C25.5,59.4002788 19.9035594,64.9967194 13,64.9967194 C6.09644063,64.9967194 0.5,59.4002788 0.5,52.4967194 Z" id="Oval-2" fill="#FFCE31" fill-rule="nonzero" mask="url(#mask-2)"></path>
                <path d="M5.5,52.4980317 C5.5,37.310201 17.8121694,24.9980317 33,24.9980317 C48.1877806,24.9980317 60.5,37.3103252 60.5,52.4980317 C60.5,59.3667771 59.247216,66.1948287 55.6917697,73.2196883 C50.6608875,83.1597179 41.8295427,91.2512939 28.7248197,96.6503303 C24.8949837,98.2281908 20.5111795,96.4026039 18.9333191,92.5727679 C17.3554586,88.7429318 19.1810455,84.3591277 23.0108815,82.7812672 C32.8147847,78.742141 38.912717,73.1550097 42.3083033,66.4460019 C44.6561025,61.8072144 45.5,57.207718 45.5,52.4980317 C45.5,45.5945762 39.9034891,39.9980317 33,39.9980317 C26.0964406,39.9980317 20.5,45.5944723 20.5,52.4980317 C20.5,56.6401673 17.1421356,59.9980317 13,59.9980317 C8.85786438,59.9980317 5.5,56.6401673 5.5,52.4980317 Z" id="Oval-2" fill="#FFFFFF" fill-rule="nonzero" mask="url(#mask-2)"></path>
                <path d="M10.5,52.4993439 C10.5,40.072937 20.5735931,29.9993439 33,29.9993439 C45.4263501,29.9993439 55.5,40.0730544 55.5,52.4993439 C55.5,58.6484029 54.3835115,64.7336028 51.2306142,70.9631051 C46.7448306,79.8261274 38.8246234,87.0828885 26.8201736,92.0286215 C25.5435616,92.554575 24.0822936,91.946046 23.5563401,90.669434 C23.0303866,89.392822 23.6389156,87.931554 24.9155276,87.4056005 C35.819704,82.9131709 42.8287738,76.4912246 46.7694588,68.7052096 C49.519807,63.2710647 50.5,57.9287166 50.5,52.4993439 C50.5,42.8344714 42.6649196,34.9993439 33,34.9993439 C23.3350169,34.9993439 15.5,42.8343608 15.5,52.4993439 C15.5,53.8800558 14.3807119,54.9993439 13,54.9993439 C11.6192881,54.9993439 10.5,53.8800558 10.5,52.4993439 Z" id="Oval-2" fill="#FFCE31" fill-rule="nonzero" mask="url(#mask-2)"></path>
            </g>
        </g>
    </g>
</svg>